#N canvas 246 45 1440 788 10;
#X obj 72 66 soundfiler;
#X obj 72 88 table mySamples;
#X obj 72 110 tabplay~ mySamples;
#X msg 72 109 bang;
#X obj 281 66 soundfiler;
#X obj 281 88 table mySamples2;
#X obj 281 110 tabplay~ mySamples2;
#X msg 281 109 bang;
#X text -348 710 Consider experementing with metroplus \, ieemlib or
maxlib. See metro help for link to objects.;
#X msg 293 339 1;
#X msg 334 395 0;
#X msg 325 339 bang;
#X msg 366 395 stop;
#X obj 293 462 bng 15 250 50 0 empty empty empty 0 -6 0 8 -262144 -1
-1;
#X floatatom 334 417 4 0 0 0 - - -;
#X obj 129 462 bng 15 250 50 0 empty empty empty 20 8 0 8 -262144 -1
-1;
#X msg 128 277 start;
#X msg 81 395 stop;
#X floatatom 218 373 5 0 0 0 - - -;
#X obj 128 299 bng 15 250 50 0 empty empty empty 20 8 0 8 -262144 -1
-1;
#N canvas 277 222 494 344 META 0;
#X text 12 155 HELP_PATCH_AUTHORS "pd meta" information added by Jonathan
Wilkes for Pd version 0.42.;
#X text 12 135 AUTHOR Mark Williamson <mark@junklight.com>;
#X text 12 25 LICENSE GPL v2;
#X text 12 45 DESCRIPTION variation on the metro object -- instead
of providing a steady pulse it can provide an irregular beat;
#X text 12 75 INLET_0 bang start stop;
#X text 12 95 INLET_1 float list;
#X text 12 115 OUTLET_0 bang;
#X text 12 5 KEYWORDS control bang_op;
#X restore -348 689 pd META;
#X msg 72 44 read -resize VE.wav mySamples;
#X msg 281 44 read -resize VG.wav mySamples2;
#X msg 492 44 read -resize VB.wav mySamples3;
#X obj 492 66 soundfiler;
#X obj 492 88 table mySamples3;
#X msg 492 110 bang;
#X obj 492 132 tabplay~ mySamples3;
#X obj -339 44 bng 60 250 50 0 empty empty empty 17 7 0 10 -4034 -1
-1;
#X obj -339 109 bng 60 250 50 0 empty empty empty 17 7 0 10 -258113
-1 -1;
#X msg 490 299 1;
#X msg 522 321 0;
#X msg 522 299 bang;
#X msg 563 339 stop;
#X obj 492 437 bng 15 250 50 0 empty empty empty 0 -6 0 8 -262144 -1
-1;
#X floatatom 541 395 4 0 0 0 - - -;
#X msg 760 44 read -resize VD.wav mySample4;
#X obj 760 66 soundfiler;
#X obj 760 88 table mySample4;
#X msg 705 299 1;
#X msg 737 321 0;
#X msg 737 299 bang;
#X msg 778 339 stop;
#X obj 707 437 bng 15 250 50 0 empty empty empty 0 -6 0 8 -262144 -1
-1;
#X floatatom 756 395 4 0 0 0 - - -;
#X msg 760 110 bang;
#X obj 760 132 tabplay~ mySample4;
#X text 95 338 comment;
#X obj 81 417 metroplus 5000;
#X obj 295 462 metroplus 8000;
#X obj 492 415 metroplus 6000;
#X obj 707 415 metroplus 7000;
#X obj -276 462 *~;
#X obj -250 506 *~;
#X obj -323 320 hsl 60 40 0 1 0 0 empty empty empty -2 -8 0 10 -262144
-1 -1 4000 1;
#X msg -276 440 \$1 50;
#X obj -276 462 line;
#X obj -276 484 freeverb~;
#X msg -195 462 wet \$1;
#X msg -195 484 dry \$1;
#X msg -195 506 roomsize \$1;
#X obj -74 415 hsl 60 40 0 1 0 0 empty empty empty -2 -8 0 10 -262144
-1 -1 3700 1;
#X obj -74 505 hsl 60 40 0 1 0 0 empty empty empty -2 -8 0 10 -262144
-1 -1 3800 1;
#X obj -74 460 hsl 60 40 0 1 0 0 empty empty empty -2 -8 0 10 -262144
-1 -1 3700 1;
#X obj -300 618 delwrite~ delayLeft 4000;
#X obj -300 640 delwrite~ delayRight 4000;
#X obj -41 618 delread~ delayLeft 1000;
#X obj -41 640 delread~ delayRight 2000;
#X floatatom -293 373 5 0 0 0 - - -;
#X floatatom 116 573 5 0 0 0 - - -;
#X floatatom 48 506 5 0 0 0 - - -;
#X floatatom 48 527 5 0 0 0 - - -;
#X floatatom 48 548 5 0 0 0 - - -;
#X obj 557 506 tgl 15 0 empty empty empty 17 7 0 10 -262144 -1 -1 1
1;
#X obj 557 573 f 0;
#X obj 588 573 == 0;
#X obj 557 573 * 127;
#X obj 498 651 hsl 128 15 0 1 0 0 empty empty empty -2 -8 0 10 -262144
-1 -1 12700 1;
#X text 624 595 <--- controls the rate of acceleration;
#X obj 743 527 tgl 15 0 empty empty empty 17 7 0 10 -262144 -1 -1 0
1;
#X obj 557 617 line 0 1;
#X msg 557 595 \$1 900000;
#X obj 336 751 dac~;
#X obj 267 711 *~ 0.1;
#X connect 2 0 52 0;
#X connect 2 0 53 0;
#X connect 2 0 83 0;
#X connect 2 0 83 1;
#X connect 3 0 2 0;
#X connect 6 0 52 0;
#X connect 6 0 53 0;
#X connect 6 0 83 0;
#X connect 6 0 83 1;
#X connect 7 0 6 0;
#X connect 9 0 49 0;
#X connect 10 0 49 0;
#X connect 11 0 49 0;
#X connect 12 0 49 0;
#X connect 13 0 7 0;
#X connect 14 0 49 1;
#X connect 15 0 3 0;
#X connect 16 0 48 0;
#X connect 17 0 48 0;
#X connect 18 0 48 1;
#X connect 19 0 48 0;
#X connect 21 0 0 0;
#X connect 22 0 4 0;
#X connect 23 0 24 0;
#X connect 26 0 27 0;
#X connect 27 0 52 0;
#X connect 27 0 53 0;
#X connect 27 0 83 0;
#X connect 27 0 83 1;
#X connect 28 0 11 0;
#X connect 28 0 16 0;
#X connect 28 0 32 0;
#X connect 28 0 41 0;
#X connect 28 0 21 0;
#X connect 28 0 22 0;
#X connect 28 0 23 0;
#X connect 28 0 36 0;
#X connect 28 0 73 0;
#X connect 29 0 17 0;
#X connect 29 0 12 0;
#X connect 29 0 33 0;
#X connect 29 0 42 0;
#X connect 30 0 50 0;
#X connect 31 0 50 0;
#X connect 32 0 50 0;
#X connect 33 0 50 0;
#X connect 34 0 26 0;
#X connect 34 0 79 0;
#X connect 35 0 50 1;
#X connect 36 0 37 0;
#X connect 39 0 51 0;
#X connect 40 0 51 0;
#X connect 41 0 51 0;
#X connect 42 0 51 0;
#X connect 43 0 45 0;
#X connect 44 0 51 1;
#X connect 45 0 46 0;
#X connect 46 0 52 0;
#X connect 46 0 53 0;
#X connect 46 0 83 0;
#X connect 46 0 83 1;
#X connect 48 0 15 0;
#X connect 49 0 13 0;
#X connect 50 0 34 0;
#X connect 51 0 43 0;
#X connect 52 0 57 0;
#X connect 53 0 57 1;
#X connect 54 0 55 0;
#X connect 54 0 68 0;
#X connect 55 0 56 0;
#X connect 56 0 53 1;
#X connect 56 0 52 1;
#X connect 57 0 64 0;
#X connect 57 0 83 0;
#X connect 57 1 65 0;
#X connect 57 1 83 1;
#X connect 58 0 57 0;
#X connect 59 0 57 0;
#X connect 60 0 57 0;
#X connect 61 0 58 0;
#X connect 61 0 70 0;
#X connect 62 0 60 0;
#X connect 62 0 72 0;
#X connect 63 0 59 0;
#X connect 63 0 71 0;
#X connect 66 0 83 0;
#X connect 67 0 83 1;
#X connect 73 0 74 0;
#X connect 74 0 76 0;
#X connect 74 0 75 0;
#X connect 75 0 74 1;
#X connect 76 0 81 0;
#X connect 77 0 83 1;
#X connect 80 0 77 0;
#X connect 81 0 80 0;
#X connect 83 0 82 0;
#X connect 83 0 82 1;
